<svg width="28" height="27" viewBox="0 0 35 34" fill="none" xmlns="http://www.w3.org/2000/svg">
<path d="M11.55 2.83331H23.45C27.9833 2.83331 31.6667 6.51665 31.6667 11.05V22.95C31.6667 25.1292 30.801 27.2191 29.2601 28.76C27.7191 30.301 25.6292 31.1666 23.45 31.1666H11.55C7.01666 31.1666 3.33333 27.4833 3.33333 22.95V11.05C3.33333 8.87078 4.19901 6.78084 5.73993 5.23992C7.28086 3.699 9.3708 2.83331 11.55 2.83331ZM11.2667 5.66665C9.91406 5.66665 8.61685 6.20397 7.66042 7.1604C6.70398 8.11684 6.16666 9.41404 6.16666 10.7666V23.2333C6.16666 26.0525 8.44749 28.3333 11.2667 28.3333H23.7333C25.0859 28.3333 26.3831 27.796 27.3396 26.8396C28.296 25.8831 28.8333 24.5859 28.8333 23.2333V10.7666C28.8333 7.94748 26.5525 5.66665 23.7333 5.66665H11.2667ZM24.9375 7.79165C25.4071 7.79165 25.8576 7.97822 26.1897 8.31031C26.5218 8.64241 26.7083 9.09283 26.7083 9.56248C26.7083 10.0321 26.5218 10.4826 26.1897 10.8146C25.8576 11.1467 25.4071 11.3333 24.9375 11.3333C24.4678 11.3333 24.0174 11.1467 23.6853 10.8146C23.3532 10.4826 23.1667 10.0321 23.1667 9.56248C23.1667 9.09283 23.3532 8.64241 23.6853 8.31031C24.0174 7.97822 24.4678 7.79165 24.9375 7.79165ZM17.5 9.91665C19.3786 9.91665 21.1803 10.6629 22.5087 11.9913C23.837 13.3197 24.5833 15.1214 24.5833 17C24.5833 18.8786 23.837 20.6803 22.5087 22.0087C21.1803 23.337 19.3786 24.0833 17.5 24.0833C15.6214 24.0833 13.8197 23.337 12.4913 22.0087C11.1629 20.6803 10.4167 18.8786 10.4167 17C10.4167 15.1214 11.1629 13.3197 12.4913 11.9913C13.8197 10.6629 15.6214 9.91665 17.5 9.91665ZM17.5 12.75C16.3728 12.75 15.2918 13.1977 14.4948 13.9948C13.6978 14.7918 13.25 15.8728 13.25 17C13.25 18.1271 13.6978 19.2082 14.4948 20.0052C15.2918 20.8022 16.3728 21.25 17.5 21.25C18.6272 21.25 19.7082 20.8022 20.5052 20.0052C21.3022 19.2082 21.75 18.1271 21.75 17C21.75 15.8728 21.3022 14.7918 20.5052 13.9948C19.7082 13.1977 18.6272 12.75 17.5 12.75Z" fill="white"/>
</svg>
