<svg width="28" height="27" viewBox="0 0 35 34" fill="none" xmlns="http://www.w3.org/2000/svg">
<path d="M17.5567 2.83333C9.82167 2.83333 3.5175 9.13749 3.5175 16.8725C3.5175 19.3517 4.16917 21.76 5.3875 23.885L3.40417 31.1667L10.8417 29.2117C12.8958 30.3308 15.205 30.9258 17.5567 30.9258C25.2917 30.9258 31.5958 24.6217 31.5958 16.8867C31.5958 13.1325 30.1367 9.60499 27.4875 6.95583C26.1885 5.64414 24.6414 4.60411 22.9365 3.89634C21.2315 3.18857 19.4027 2.82721 17.5567 2.83333ZM17.5708 5.19916C20.6875 5.19916 23.6058 6.41749 25.8158 8.62749C26.9001 9.71198 27.7598 10.9997 28.3457 12.417C28.9315 13.8342 29.2321 15.3531 29.23 16.8867C29.23 23.3183 23.9883 28.5458 17.5567 28.5458C15.46 28.5458 13.4058 27.9933 11.6208 26.9167L11.1958 26.6758L6.77583 27.8375L7.95167 23.5308L7.66833 23.0775C6.49894 21.2194 5.88003 19.0679 5.88333 16.8725C5.8975 10.4408 11.125 5.19916 17.5708 5.19916ZM12.5842 10.3842C12.3575 10.3842 11.975 10.4692 11.6492 10.8233C11.3375 11.1775 10.4167 12.0417 10.4167 13.7558C10.4167 15.4842 11.6775 17.1417 11.8333 17.3825C12.0317 17.6233 14.3267 21.165 17.8542 22.6667C18.69 23.0492 19.3417 23.2617 19.8517 23.4175C20.6875 23.6867 21.4525 23.6442 22.0617 23.5592C22.7417 23.46 24.13 22.7092 24.4275 21.8875C24.725 21.0658 24.725 20.3717 24.64 20.2158C24.5408 20.0742 24.3142 19.9892 23.96 19.8333C23.6058 19.635 21.8775 18.785 21.5658 18.6717C21.24 18.5583 21.0417 18.5017 20.7725 18.8417C20.5458 19.1958 19.8658 19.9892 19.6675 20.2158C19.455 20.4567 19.2567 20.485 18.9167 20.315C18.5483 20.1308 17.415 19.7625 16.0833 18.5725C15.035 17.6375 14.3408 16.49 14.1283 16.1358C13.9583 15.7958 14.1142 15.5833 14.2842 15.4275C14.44 15.2717 14.6667 15.0167 14.8083 14.8042C14.9925 14.6058 15.0492 14.45 15.1625 14.2233C15.2758 13.9825 15.2192 13.7842 15.1342 13.6142C15.0492 13.4583 14.3408 11.7017 14.0433 11.0075C13.76 10.3275 13.4767 10.4125 13.25 10.3983C13.0517 10.3983 12.825 10.3842 12.5842 10.3842Z" fill="white"/>
</svg>
