<svg width="28" height="27" viewBox="0 0 35 34" fill="none" xmlns="http://www.w3.org/2000/svg">
<path d="M17.5 2.89001C9.70834 2.89001 3.33334 9.25085 3.33334 17.085C3.33334 24.1683 8.51833 30.0475 15.29 31.11V21.1933H11.6917V17.085H15.29V13.9542C15.29 10.3983 17.4008 8.44335 20.645 8.44335C22.1892 8.44335 23.8042 8.71251 23.8042 8.71251V12.2117H22.0192C20.2625 12.2117 19.71 13.3025 19.71 14.4217V17.085H23.6483L23.0108 21.1933H19.71V31.11C23.0483 30.5828 26.0881 28.8795 28.2807 26.3076C30.4733 23.7357 31.6742 20.4647 31.6667 17.085C31.6667 9.25085 25.2917 2.89001 17.5 2.89001Z" fill="white"/>
</svg>
